<svg width="200" height="191" viewBox="0 0 200 191" fill="none" xmlns="http://www.w3.org/2000/svg">
<g filter="url(#filter0_d_1_95)">
<rect x="4" width="192" height="183" rx="20" fill="#FDFFF5"/>
</g>
<rect x="30" y="127" width="140" height="40" rx="20" fill="#1C53A4"/>
<path d="M61.648 152V151.622C62.296 151.622 62.674 151.502 62.782 151.262V142.208C62.674 141.968 62.296 141.848 61.648 141.848V141.47H65.95C67.45 141.47 68.578 141.716 69.334 142.208C70.102 142.7 70.486 143.282 70.486 143.954C70.486 145.226 69.802 146.072 68.434 146.492C69.322 146.708 70.018 147.044 70.522 147.5C71.026 147.956 71.278 148.43 71.278 148.922C71.278 149.834 70.912 150.578 70.18 151.154C69.46 151.718 68.386 152 66.958 152H61.648ZM65.068 142.082V146.258H65.896C66.76 146.258 67.336 146.072 67.624 145.7C67.912 145.328 68.056 144.752 68.056 143.972C68.056 142.712 67.144 142.082 65.32 142.082H65.068ZM65.068 146.78V151.388H66.328C68.008 151.388 68.848 150.572 68.848 148.94C68.848 148.376 68.638 147.878 68.218 147.446C67.798 147.002 67.096 146.78 66.112 146.78H65.068ZM80.5615 150.92C81.2095 150.968 81.5875 150.992 81.6955 150.992V151.406C81.4675 151.406 80.9155 151.538 80.0395 151.802C79.1635 152.054 78.5875 152.18 78.3115 152.18V151.658C77.6995 152.006 77.0875 152.18 76.4755 152.18C74.1595 152.18 73.0015 151.328 73.0015 149.624V144.818C72.8935 144.578 72.5155 144.458 71.8675 144.458V144.08H75.2515V149.75C75.2515 150.002 75.2515 150.2 75.2515 150.344C75.2635 150.476 75.2935 150.632 75.3415 150.812C75.3895 150.992 75.4555 151.13 75.5395 151.226C75.6355 151.322 75.7675 151.406 75.9355 151.478C76.1155 151.538 76.3315 151.568 76.5835 151.568C77.1715 151.568 77.7475 151.406 78.3115 151.082V144.818C78.2035 144.578 77.8255 144.458 77.1775 144.458V144.08H80.5615V150.92ZM85.7888 144.08V144.458C85.4408 144.458 85.1888 144.482 85.0328 144.53L87.1748 149.804L89.2268 144.656C89.0588 144.524 88.7228 144.458 88.2188 144.458V144.08H91.1708V144.458C90.5228 144.458 90.1568 144.554 90.0728 144.746L86.4368 153.836C86.0408 154.82 85.4108 155.312 84.5468 155.312C83.6708 155.312 83.2328 155.024 83.2328 154.448C83.2328 154.232 83.2988 154.058 83.4308 153.926C83.5748 153.794 83.7728 153.728 84.0248 153.728C84.2168 153.728 84.3848 153.818 84.5288 153.998C84.6728 154.178 84.8348 154.268 85.0148 154.268C85.2668 154.268 85.4348 154.16 85.5188 153.944L85.9868 152.792L82.8008 144.818C82.6928 144.578 82.3148 144.458 81.6668 144.458V144.08H85.7888ZM99.6693 152.18C99.0813 152.18 98.4813 152.09 97.8693 151.91C97.2573 151.73 96.9393 151.64 96.9153 151.64C96.8433 151.64 96.7593 151.676 96.6633 151.748C96.5673 151.82 96.5193 151.904 96.5193 152H96.1053V149.156H96.5013C96.6333 149.864 97.0293 150.446 97.6893 150.902C98.3493 151.346 98.9733 151.568 99.5613 151.568C100.161 151.568 100.641 151.412 101.001 151.1C101.373 150.776 101.559 150.356 101.559 149.84C101.559 149.66 101.499 149.486 101.379 149.318C101.271 149.138 101.091 148.958 100.839 148.778C100.599 148.586 100.383 148.43 100.191 148.31C99.9993 148.178 99.7173 148.004 99.3453 147.788C98.9853 147.572 98.7273 147.416 98.5713 147.32C96.9393 146.312 96.1233 145.232 96.1233 144.08C96.1233 143.372 96.4473 142.73 97.0953 142.154C97.7433 141.578 98.4693 141.29 99.2733 141.29C99.6333 141.29 100.071 141.38 100.587 141.56C101.103 141.74 101.391 141.83 101.451 141.83C101.595 141.83 101.667 141.71 101.667 141.47H102.081L102.261 144.188H101.865C101.793 143.696 101.469 143.192 100.893 142.676C100.317 142.16 99.7833 141.902 99.2913 141.902C98.7513 141.902 98.3433 142.076 98.0673 142.424C97.7913 142.76 97.6533 143.12 97.6533 143.504C97.6533 143.66 97.7073 143.816 97.8153 143.972C97.9233 144.116 98.0973 144.278 98.3373 144.458C98.5773 144.638 98.7873 144.788 98.9673 144.908C99.1473 145.016 99.4233 145.178 99.7953 145.394C100.167 145.61 100.425 145.76 100.569 145.844C101.397 146.348 102.045 146.87 102.513 147.41C102.981 147.95 103.215 148.592 103.215 149.336C103.215 150.224 102.855 150.92 102.135 151.424C101.415 151.928 100.593 152.18 99.6693 152.18ZM107.371 141.47V144.08H108.919V144.62H107.371V150.344C107.371 150.716 107.437 151.004 107.569 151.208C107.701 151.4 107.947 151.496 108.307 151.496C108.523 151.496 108.739 151.394 108.955 151.19C109.183 150.974 109.339 150.68 109.423 150.308L109.855 150.524C109.603 151.628 108.883 152.18 107.695 152.18C106.759 152.18 106.075 151.97 105.643 151.55C105.223 151.118 105.013 150.416 105.013 149.444V144.62H103.753V144.08C104.461 144.08 105.079 143.816 105.607 143.288C106.135 142.748 106.399 142.142 106.399 141.47H107.371ZM112.836 147.536C112.836 148.952 113.022 149.99 113.394 150.65C113.778 151.31 114.36 151.64 115.14 151.64C115.68 151.64 116.094 151.358 116.382 150.794C116.67 150.218 116.814 149.462 116.814 148.526C116.814 147.062 116.64 146.018 116.292 145.394C115.956 144.77 115.35 144.458 114.474 144.458C113.958 144.458 113.556 144.758 113.268 145.358C112.98 145.958 112.836 146.684 112.836 147.536ZM114.906 152.18C113.55 152.18 112.47 151.784 111.666 150.992C110.874 150.2 110.478 149.168 110.478 147.896C110.478 146.756 110.838 145.808 111.558 145.052C112.29 144.284 113.364 143.9 114.78 143.9C116.208 143.9 117.294 144.278 118.038 145.034C118.794 145.79 119.172 146.816 119.172 148.112C119.172 149.264 118.812 150.23 118.092 151.01C117.372 151.79 116.31 152.18 114.906 152.18ZM124.661 144.44C124.097 144.44 123.617 144.728 123.221 145.304C122.825 145.868 122.627 146.624 122.627 147.572C122.627 148.64 122.843 149.564 123.275 150.344C123.707 151.112 124.271 151.496 124.967 151.496C125.975 151.496 126.737 151.064 127.253 150.2L127.919 150.524C127.571 151.1 127.115 151.52 126.551 151.784C125.999 152.048 125.267 152.18 124.355 152.18C123.995 152.18 123.641 152.138 123.293 152.054C122.945 151.982 122.585 151.838 122.213 151.622C121.841 151.406 121.517 151.136 121.241 150.812C120.965 150.488 120.737 150.056 120.557 149.516C120.377 148.964 120.287 148.34 120.287 147.644C120.287 146.612 120.683 145.73 121.475 144.998C122.267 144.266 123.269 143.9 124.481 143.9C125.453 143.9 126.233 144.068 126.821 144.404C127.421 144.728 127.721 145.196 127.721 145.808C127.721 146.108 127.643 146.354 127.487 146.546C127.343 146.738 127.121 146.834 126.821 146.834C126.533 146.834 126.299 146.768 126.119 146.636C125.951 146.492 125.867 146.306 125.867 146.078C125.867 145.826 125.927 145.64 126.047 145.52C126.179 145.4 126.329 145.34 126.497 145.34C126.341 144.74 125.729 144.44 124.661 144.44ZM128.647 152V151.622C129.295 151.622 129.673 151.502 129.781 151.262V141.92C129.133 141.872 128.755 141.848 128.647 141.848V141.434C128.875 141.434 129.427 141.308 130.303 141.056C131.179 140.792 131.755 140.66 132.031 140.66V151.262C132.139 151.502 132.517 151.622 133.165 151.622V152H128.647ZM134.479 152V151.622C134.767 151.622 134.995 151.604 135.163 151.568L132.157 147.428L135.343 144.566C135.163 144.494 134.869 144.458 134.461 144.458V144.08H137.287V144.458C136.819 144.458 136.495 144.536 136.315 144.692L134.137 146.636L137.485 151.28C137.653 151.508 138.031 151.622 138.619 151.622V152H134.479Z" fill="white"/>
<path d="M43.922 32V31.622C44.474 31.622 44.822 31.55 44.966 31.406L43.958 28.652H40.502L39.566 31.298C39.686 31.514 40.058 31.622 40.682 31.622V32H37.73V31.622C38.39 31.622 38.768 31.496 38.864 31.244L42.356 21.47H43.814L47.342 31.244C47.426 31.496 47.81 31.622 48.494 31.622V32H43.922ZM42.212 23.864L40.718 28.058H43.742L42.212 23.864ZM48.3594 35.456V35.078C49.0074 35.078 49.3854 34.958 49.4934 34.718V25.178C49.4934 25.178 49.1154 25.148 48.3594 25.088V24.674C48.5874 24.674 49.1394 24.548 50.0154 24.296C50.8914 24.032 51.4674 23.9 51.7434 23.9V24.386C52.2834 24.062 52.9434 23.9 53.7234 23.9C54.2754 23.9 54.7794 23.966 55.2354 24.098C55.6914 24.23 56.1234 24.446 56.5314 24.746C56.9394 25.046 57.2574 25.484 57.4854 26.06C57.7254 26.624 57.8454 27.296 57.8454 28.076C57.8454 29.432 57.4494 30.458 56.6574 31.154C55.8774 31.838 54.7674 32.18 53.3274 32.18C52.7154 32.18 52.1874 32.078 51.7434 31.874V34.718C51.8514 34.958 52.2294 35.078 52.8774 35.078V35.456H48.3594ZM51.7434 24.962V31.298C52.1754 31.478 52.6674 31.568 53.2194 31.568C53.8674 31.568 54.4074 31.268 54.8394 30.668C55.2834 30.056 55.5054 29.192 55.5054 28.076C55.5054 27.62 55.4334 27.128 55.2894 26.6C55.1454 26.06 54.9174 25.58 54.6054 25.16C54.2934 24.728 53.9394 24.512 53.5434 24.512C52.8114 24.512 52.2114 24.662 51.7434 24.962ZM58.6778 35.456V35.078C59.3258 35.078 59.7038 34.958 59.8118 34.718V25.178C59.8118 25.178 59.4338 25.148 58.6778 25.088V24.674C58.9058 24.674 59.4578 24.548 60.3338 24.296C61.2098 24.032 61.7858 23.9 62.0618 23.9V24.386C62.6018 24.062 63.2618 23.9 64.0418 23.9C64.5938 23.9 65.0978 23.966 65.5538 24.098C66.0098 24.23 66.4418 24.446 66.8498 24.746C67.2578 25.046 67.5758 25.484 67.8038 26.06C68.0438 26.624 68.1638 27.296 68.1638 28.076C68.1638 29.432 67.7678 30.458 66.9758 31.154C66.1958 31.838 65.0858 32.18 63.6458 32.18C63.0338 32.18 62.5058 32.078 62.0618 31.874V34.718C62.1698 34.958 62.5478 35.078 63.1958 35.078V35.456H58.6778ZM62.0618 24.962V31.298C62.4938 31.478 62.9858 31.568 63.5378 31.568C64.1858 31.568 64.7258 31.268 65.1578 30.668C65.6018 30.056 65.8238 29.192 65.8238 28.076C65.8238 27.62 65.7518 27.128 65.6078 26.6C65.4638 26.06 65.2358 25.58 64.9238 25.16C64.6118 24.728 64.2578 24.512 63.8618 24.512C63.1298 24.512 62.5298 24.662 62.0618 24.962ZM68.9258 32V31.622C69.5738 31.622 69.9518 31.502 70.0598 31.262V21.92C69.4118 21.872 69.0338 21.848 68.9258 21.848V21.434C69.1538 21.434 69.7058 21.308 70.5818 21.056C71.4578 20.792 72.0338 20.66 72.3098 20.66V31.262C72.4178 31.502 72.7958 31.622 73.4438 31.622V32H68.9258ZM76.5113 27.662C76.5353 28.706 76.7693 29.606 77.2133 30.362C77.6693 31.118 78.2453 31.496 78.9413 31.496C79.9853 31.496 80.8253 31.1 81.4613 30.308L81.8933 30.524C81.5453 31.1 81.0893 31.52 80.5253 31.784C79.9733 32.048 79.2413 32.18 78.3293 32.18C77.8613 32.18 77.4053 32.114 76.9613 31.982C76.5173 31.838 76.0733 31.61 75.6293 31.298C75.1973 30.974 74.8433 30.5 74.5673 29.876C74.3033 29.252 74.1713 28.508 74.1713 27.644C74.1713 26.6 74.5373 25.718 75.2693 24.998C76.0133 24.266 76.9733 23.9 78.1493 23.9C79.4333 23.9 80.4293 24.266 81.1373 24.998C81.8453 25.718 82.1993 26.606 82.1993 27.662H76.5113ZM76.5293 27.104H79.8053C79.7333 26.252 79.5833 25.598 79.3553 25.142C79.1393 24.674 78.7853 24.44 78.2933 24.44C77.8613 24.44 77.4713 24.662 77.1233 25.106C76.7873 25.538 76.5893 26.204 76.5293 27.104ZM83.3689 31.064C83.3689 30.716 83.4889 30.44 83.7289 30.236C83.9809 30.02 84.2689 29.912 84.5929 29.912C84.8809 29.912 85.1629 30.014 85.4389 30.218C85.7149 30.41 85.8529 30.674 85.8529 31.01C85.8529 31.358 85.7269 31.64 85.4749 31.856C85.2229 32.072 84.9349 32.18 84.6109 32.18C84.3229 32.18 84.0409 32.078 83.7649 31.874C83.5009 31.67 83.3689 31.4 83.3689 31.064ZM87.2339 32V31.622C87.8819 31.622 88.2599 31.502 88.3679 31.262V22.208C88.2599 21.968 87.8819 21.848 87.2339 21.848V21.47H91.7879V21.848C91.1399 21.848 90.7619 21.968 90.6539 22.208V31.262C90.7619 31.502 91.1399 31.622 91.7879 31.622V32H87.2339ZM92.7836 32V31.622C93.4316 31.622 93.8096 31.502 93.9176 31.262V25.16C93.2696 25.112 92.8916 25.088 92.7836 25.088V24.674C93.0116 24.674 93.5636 24.548 94.4396 24.296C95.3156 24.032 95.8916 23.9 96.1676 23.9V24.656C96.7676 24.152 97.4276 23.9 98.1476 23.9C99.2996 23.9 100.194 24.116 100.83 24.548C101.466 24.968 101.784 25.604 101.784 26.456V31.262C101.892 31.502 102.27 31.622 102.918 31.622V32H98.3996V31.622C99.0476 31.622 99.4256 31.502 99.5336 31.262V26.33C99.5336 25.79 99.4076 25.352 99.1556 25.016C98.9156 24.68 98.5436 24.512 98.0396 24.512C97.2956 24.512 96.6716 24.752 96.1676 25.232V31.262C96.2756 31.502 96.6536 31.622 97.3016 31.622V32H92.7836ZM107.953 24.44C107.389 24.44 106.909 24.728 106.513 25.304C106.117 25.868 105.919 26.624 105.919 27.572C105.919 28.64 106.135 29.564 106.567 30.344C106.999 31.112 107.563 31.496 108.259 31.496C109.267 31.496 110.029 31.064 110.545 30.2L111.211 30.524C110.863 31.1 110.407 31.52 109.843 31.784C109.291 32.048 108.559 32.18 107.647 32.18C107.287 32.18 106.933 32.138 106.585 32.054C106.237 31.982 105.877 31.838 105.505 31.622C105.133 31.406 104.809 31.136 104.533 30.812C104.257 30.488 104.029 30.056 103.849 29.516C103.669 28.964 103.579 28.34 103.579 27.644C103.579 26.612 103.975 25.73 104.767 24.998C105.559 24.266 106.561 23.9 107.773 23.9C108.745 23.9 109.525 24.068 110.113 24.404C110.713 24.728 111.013 25.196 111.013 25.808C111.013 26.108 110.935 26.354 110.779 26.546C110.635 26.738 110.413 26.834 110.113 26.834C109.825 26.834 109.591 26.768 109.411 26.636C109.243 26.492 109.159 26.306 109.159 26.078C109.159 25.826 109.219 25.64 109.339 25.52C109.471 25.4 109.621 25.34 109.789 25.34C109.633 24.74 109.021 24.44 107.953 24.44Z" fill="black"/>
<path d="M124 21L131 31.5L136.5 26.5L142.5 31.5L151 21L157 25" stroke="#FF0000"/>
<path d="M37.234 50.47H46.54V52.216H46.162C46.162 51.64 45.952 51.262 45.532 51.082H43.03V60.262C43.138 60.502 43.516 60.622 44.164 60.622V61H39.61V60.622C40.258 60.622 40.636 60.502 40.744 60.262V51.082H38.242C37.822 51.262 37.612 51.64 37.612 52.216H37.234V50.47ZM48.5816 56.662C48.6056 57.706 48.8396 58.606 49.2836 59.362C49.7396 60.118 50.3156 60.496 51.0116 60.496C52.0556 60.496 52.8956 60.1 53.5316 59.308L53.9636 59.524C53.6156 60.1 53.1596 60.52 52.5956 60.784C52.0436 61.048 51.3116 61.18 50.3996 61.18C49.9316 61.18 49.4756 61.114 49.0316 60.982C48.5876 60.838 48.1436 60.61 47.6996 60.298C47.2676 59.974 46.9136 59.5 46.6376 58.876C46.3736 58.252 46.2416 57.508 46.2416 56.644C46.2416 55.6 46.6076 54.718 47.3396 53.998C48.0836 53.266 49.0436 52.9 50.2196 52.9C51.5036 52.9 52.4996 53.266 53.2076 53.998C53.9156 54.718 54.2696 55.606 54.2696 56.662H48.5816ZM48.5996 56.104H51.8756C51.8036 55.252 51.6536 54.598 51.4256 54.142C51.2096 53.674 50.8556 53.44 50.3636 53.44C49.9316 53.44 49.5416 53.662 49.1936 54.106C48.8576 54.538 48.6596 55.204 48.5996 56.104ZM58.4092 60.46C59.2252 60.46 59.6332 60.088 59.6332 59.344C59.6332 59.14 59.4892 58.942 59.2012 58.75C58.9132 58.546 58.5652 58.348 58.1572 58.156C57.7492 57.952 57.3412 57.724 56.9332 57.472C56.5252 57.22 56.1772 56.89 55.8892 56.482C55.6012 56.062 55.4572 55.594 55.4572 55.078C55.4572 54.406 55.7092 53.878 56.2132 53.494C56.7292 53.098 57.3412 52.9 58.0492 52.9C58.4572 52.9 58.8772 52.99 59.3092 53.17C59.7412 53.35 59.9872 53.44 60.0472 53.44C60.1912 53.44 60.2632 53.32 60.2632 53.08H60.6772L60.8572 55.708H60.4612C60.3412 55.204 60.0292 54.712 59.5252 54.232C59.0332 53.752 58.5592 53.512 58.1032 53.512C57.2512 53.512 56.8252 53.824 56.8252 54.448C56.8252 54.664 57.0592 54.916 57.5272 55.204C57.9952 55.48 58.5052 55.75 59.0572 56.014C59.6092 56.278 60.1192 56.656 60.5872 57.148C61.0552 57.64 61.2892 58.18 61.2892 58.768C61.2892 59.512 61.0072 60.1 60.4432 60.532C59.8792 60.964 59.1532 61.18 58.2652 61.18C57.8332 61.18 57.3952 61.09 56.9512 60.91C56.5072 60.73 56.2612 60.64 56.2132 60.64C56.0692 60.64 55.9972 60.76 55.9972 61H55.5652L55.3852 58.246H55.7812C55.9012 58.726 56.2612 59.218 56.8612 59.722C57.4732 60.214 57.9892 60.46 58.4092 60.46ZM62.1075 61V60.622C62.7555 60.622 63.1335 60.502 63.2415 60.262V50.92C62.5935 50.872 62.2155 50.848 62.1075 50.848V50.434C62.3355 50.434 62.8875 50.308 63.7635 50.056C64.6395 49.792 65.2155 49.66 65.4915 49.66V60.262C65.5995 60.502 65.9775 60.622 66.6255 60.622V61H62.1075ZM69.2228 54.412C69.4988 54.412 69.6368 54.658 69.6368 55.15C69.6368 55.354 69.5348 55.51 69.3308 55.618C69.1268 55.726 68.9108 55.78 68.6828 55.78C68.4428 55.78 68.2268 55.696 68.0348 55.528C67.8548 55.36 67.7648 55.144 67.7648 54.88C67.7648 54.268 68.0648 53.788 68.6648 53.44C69.2768 53.08 70.0688 52.9 71.0408 52.9C72.1808 52.9 73.0688 53.188 73.7048 53.764C74.3408 54.328 74.6588 55.048 74.6588 55.924V59.488C74.6588 59.872 74.7188 60.154 74.8388 60.334C74.9708 60.514 75.1268 60.604 75.3068 60.604C75.4628 60.604 75.6008 60.562 75.7208 60.478C75.8528 60.394 75.9188 60.292 75.9188 60.172H76.2428C76.2428 60.82 75.5828 61.144 74.2628 61.144C73.6508 61.144 73.1768 60.928 72.8408 60.496C72.1208 60.952 71.2868 61.18 70.3388 61.18C68.3348 61.18 67.3328 60.448 67.3328 58.984C67.3328 58.684 67.4348 58.414 67.6388 58.174C67.8548 57.934 68.1788 57.73 68.6108 57.562C69.0428 57.394 69.4268 57.262 69.7628 57.166C70.1108 57.07 70.5848 56.962 71.1848 56.842C71.7848 56.71 72.1928 56.614 72.4088 56.554C72.4088 55.426 72.3128 54.646 72.1208 54.214C71.9408 53.77 71.5208 53.548 70.8608 53.548C70.4648 53.548 70.1048 53.632 69.7808 53.8C69.4688 53.956 69.2828 54.16 69.2228 54.412ZM72.5888 60.064C72.4688 59.74 72.4088 59.38 72.4088 58.984V56.95C71.3888 57.262 70.7168 57.52 70.3928 57.724C69.8888 58.06 69.6368 58.492 69.6368 59.02C69.6368 59.572 69.7508 59.968 69.9788 60.208C70.2188 60.448 70.4888 60.568 70.7888 60.568C71.3168 60.568 71.9168 60.4 72.5888 60.064Z" fill="black"/>
<path d="M122 60.5L127.5 54.5L133.5 58.5L142 50L150 61.5L156 52.5L160 55.5L162 51.5" stroke="#81C449"/>
<path d="M38.648 90V89.622C39.296 89.622 39.674 89.502 39.782 89.262V80.208C39.674 79.968 39.296 79.848 38.648 79.848V79.47H41.906L45.74 87.84L49.574 79.47H52.868V79.848C52.22 79.848 51.842 79.968 51.734 80.208V89.262C51.842 89.502 52.22 89.622 52.868 89.622V90H48.314V89.622C48.962 89.622 49.34 89.502 49.448 89.262V81.18L45.416 90H44.516L40.394 81.072V89.262C40.502 89.502 40.88 89.622 41.528 89.622V90H38.648ZM53.8656 90V89.622C54.5136 89.622 54.8916 89.502 54.9996 89.262V83.16C54.3756 83.112 53.9976 83.088 53.8656 83.088V82.674C54.0936 82.674 54.6456 82.548 55.5216 82.296C56.3976 82.032 56.9736 81.9 57.2496 81.9V89.262C57.3576 89.502 57.7356 89.622 58.3836 89.622V90H53.8656ZM56.0796 80.748C55.7916 80.748 55.4976 80.646 55.1976 80.442C54.9096 80.226 54.7656 79.974 54.7656 79.686C54.7656 79.434 54.8976 79.2 55.1616 78.984C55.4376 78.768 55.7256 78.66 56.0256 78.66C56.3136 78.66 56.6016 78.768 56.8896 78.984C57.1896 79.188 57.3396 79.44 57.3396 79.74C57.3396 79.992 57.2016 80.226 56.9256 80.442C56.6616 80.646 56.3796 80.748 56.0796 80.748ZM63.4808 82.44C62.9168 82.44 62.4368 82.728 62.0408 83.304C61.6448 83.868 61.4468 84.624 61.4468 85.572C61.4468 86.64 61.6628 87.564 62.0948 88.344C62.5268 89.112 63.0908 89.496 63.7868 89.496C64.7948 89.496 65.5568 89.064 66.0728 88.2L66.7388 88.524C66.3908 89.1 65.9348 89.52 65.3708 89.784C64.8188 90.048 64.0868 90.18 63.1748 90.18C62.8148 90.18 62.4608 90.138 62.1128 90.054C61.7648 89.982 61.4048 89.838 61.0328 89.622C60.6608 89.406 60.3368 89.136 60.0608 88.812C59.7848 88.488 59.5568 88.056 59.3768 87.516C59.1968 86.964 59.1068 86.34 59.1068 85.644C59.1068 84.612 59.5028 83.73 60.2948 82.998C61.0868 82.266 62.0888 81.9 63.3008 81.9C64.2728 81.9 65.0528 82.068 65.6408 82.404C66.2408 82.728 66.5408 83.196 66.5408 83.808C66.5408 84.108 66.4628 84.354 66.3068 84.546C66.1628 84.738 65.9408 84.834 65.6408 84.834C65.3528 84.834 65.1188 84.768 64.9388 84.636C64.7708 84.492 64.6868 84.306 64.6868 84.078C64.6868 83.826 64.7468 83.64 64.8668 83.52C64.9988 83.4 65.1488 83.34 65.3168 83.34C65.1608 82.74 64.5488 82.44 63.4808 82.44ZM67.6468 90V89.622C68.2948 89.622 68.6728 89.502 68.7808 89.262V83.16C68.1328 83.112 67.7548 83.088 67.6468 83.088V82.674C67.8748 82.674 68.4268 82.548 69.3028 82.296C70.1788 82.032 70.7548 81.9 71.0308 81.9V82.656C71.6548 82.152 72.2488 81.9 72.8128 81.9C74.3008 81.9 75.0448 82.26 75.0448 82.98C75.0448 83.268 74.9548 83.496 74.7748 83.664C74.6068 83.832 74.3968 83.916 74.1448 83.916C73.8688 83.916 73.6588 83.844 73.5148 83.7C73.3708 83.556 73.2808 83.394 73.2448 83.214C73.2088 83.034 73.1368 82.872 73.0288 82.728C72.9328 82.584 72.7888 82.512 72.5968 82.512C72.1408 82.512 71.6188 82.764 71.0308 83.268V89.262C71.1388 89.502 71.5168 89.622 72.1648 89.622V90H67.6468ZM77.9004 85.536C77.9004 86.952 78.0864 87.99 78.4584 88.65C78.8424 89.31 79.4244 89.64 80.2044 89.64C80.7444 89.64 81.1584 89.358 81.4464 88.794C81.7344 88.218 81.8784 87.462 81.8784 86.526C81.8784 85.062 81.7044 84.018 81.3564 83.394C81.0204 82.77 80.4144 82.458 79.5384 82.458C79.0224 82.458 78.6204 82.758 78.3324 83.358C78.0444 83.958 77.9004 84.684 77.9004 85.536ZM79.9704 90.18C78.6144 90.18 77.5344 89.784 76.7304 88.992C75.9384 88.2 75.5424 87.168 75.5424 85.896C75.5424 84.756 75.9024 83.808 76.6224 83.052C77.3544 82.284 78.4284 81.9 79.8444 81.9C81.2724 81.9 82.3584 82.278 83.1024 83.034C83.8584 83.79 84.2364 84.816 84.2364 86.112C84.2364 87.264 83.8764 88.23 83.1564 89.01C82.4364 89.79 81.3744 90.18 79.9704 90.18ZM88.501 89.46C89.317 89.46 89.725 89.088 89.725 88.344C89.725 88.14 89.581 87.942 89.293 87.75C89.005 87.546 88.657 87.348 88.249 87.156C87.841 86.952 87.433 86.724 87.025 86.472C86.617 86.22 86.269 85.89 85.981 85.482C85.693 85.062 85.549 84.594 85.549 84.078C85.549 83.406 85.801 82.878 86.305 82.494C86.821 82.098 87.433 81.9 88.141 81.9C88.549 81.9 88.969 81.99 89.401 82.17C89.833 82.35 90.079 82.44 90.139 82.44C90.283 82.44 90.355 82.32 90.355 82.08H90.769L90.949 84.708H90.553C90.433 84.204 90.121 83.712 89.617 83.232C89.125 82.752 88.651 82.512 88.195 82.512C87.343 82.512 86.917 82.824 86.917 83.448C86.917 83.664 87.151 83.916 87.619 84.204C88.087 84.48 88.597 84.75 89.149 85.014C89.701 85.278 90.211 85.656 90.679 86.148C91.147 86.64 91.381 87.18 91.381 87.768C91.381 88.512 91.099 89.1 90.535 89.532C89.971 89.964 89.245 90.18 88.357 90.18C87.925 90.18 87.487 90.09 87.043 89.91C86.599 89.73 86.353 89.64 86.305 89.64C86.161 89.64 86.089 89.76 86.089 90H85.657L85.477 87.246H85.873C85.993 87.726 86.353 88.218 86.953 88.722C87.565 89.214 88.081 89.46 88.501 89.46ZM94.8633 85.536C94.8633 86.952 95.0493 87.99 95.4213 88.65C95.8053 89.31 96.3873 89.64 97.1673 89.64C97.7073 89.64 98.1213 89.358 98.4093 88.794C98.6973 88.218 98.8413 87.462 98.8413 86.526C98.8413 85.062 98.6673 84.018 98.3193 83.394C97.9833 82.77 97.3773 82.458 96.5013 82.458C95.9853 82.458 95.5833 82.758 95.2953 83.358C95.0073 83.958 94.8633 84.684 94.8633 85.536ZM96.9333 90.18C95.5773 90.18 94.4973 89.784 93.6933 88.992C92.9013 88.2 92.5053 87.168 92.5053 85.896C92.5053 84.756 92.8653 83.808 93.5853 83.052C94.3173 82.284 95.3913 81.9 96.8073 81.9C98.2353 81.9 99.3213 82.278 100.065 83.034C100.821 83.79 101.199 84.816 101.199 86.112C101.199 87.264 100.839 88.23 100.119 89.01C99.3993 89.79 98.3373 90.18 96.9333 90.18ZM108.058 79.722C108.058 80.262 107.818 80.532 107.338 80.532C107.05 80.532 106.846 80.466 106.726 80.334C106.606 80.19 106.546 80.034 106.546 79.866C106.558 79.698 106.528 79.548 106.456 79.416C106.396 79.272 106.27 79.2 106.078 79.2C105.646 79.2 105.43 79.872 105.43 81.216V82.08H106.816V82.62H105.43V89.262C105.538 89.502 105.916 89.622 106.564 89.622V90H102.046V89.622C102.694 89.622 103.072 89.502 103.18 89.262V82.62H102.28V82.08H103.18V81.468C103.18 80.484 103.426 79.77 103.918 79.326C104.422 78.882 105.082 78.66 105.898 78.66C106.606 78.66 107.14 78.768 107.5 78.984C107.872 79.2 108.058 79.446 108.058 79.722ZM110.826 79.47V82.08H112.374V82.62H110.826V88.344C110.826 88.716 110.892 89.004 111.024 89.208C111.156 89.4 111.402 89.496 111.762 89.496C111.978 89.496 112.194 89.394 112.41 89.19C112.638 88.974 112.794 88.68 112.878 88.308L113.31 88.524C113.058 89.628 112.338 90.18 111.15 90.18C110.214 90.18 109.53 89.97 109.098 89.55C108.678 89.118 108.468 88.416 108.468 87.444V82.62H107.208V82.08C107.916 82.08 108.534 81.816 109.062 81.288C109.59 80.748 109.854 80.142 109.854 79.47H110.826Z" fill="black"/>
<path d="M124 81L127.5 89L136 81L143 84.5L151 79L163.5 89" stroke="#FF0000"/>
<defs>
<filter id="filter0_d_1_95" x="0" y="0" width="200" height="191" filterUnits="userSpaceOnUse" color-interpolation-filters="sRGB">
<feFlood flood-opacity="0" result="BackgroundImageFix"/>
<feColorMatrix in="SourceAlpha" type="matrix" values="0 0 0 0 0 0 0 0 0 0 0 0 0 0 0 0 0 0 127 0" result="hardAlpha"/>
<feOffset dy="4"/>
<feGaussianBlur stdDeviation="2"/>
<feComposite in2="hardAlpha" operator="out"/>
<feColorMatrix type="matrix" values="0 0 0 0 0 0 0 0 0 0 0 0 0 0 0 0 0 0 0.25 0"/>
<feBlend mode="normal" in2="BackgroundImageFix" result="effect1_dropShadow_1_95"/>
<feBlend mode="normal" in="SourceGraphic" in2="effect1_dropShadow_1_95" result="shape"/>
</filter>
</defs>
</svg>
