<svg width="175" height="40" viewBox="0 0 175 40" fill="none" xmlns="http://www.w3.org/2000/svg">
<path d="M168.417 40H6.95834C3.40629 40 0.5 37.75 0.5 35V5.00002C0.5 2.25 3.40623 0 6.95834 0H168.417C171.969 0 174.875 2.25 174.875 5.00002V35C174.875 37.75 171.969 40 168.417 40Z" fill="black"/>
<path d="M168.417 0H6.95834C3.40629 0 0.5 2.25 0.5 5.00002V35C0.5 37.75 3.40623 40 6.95834 40H168.417C171.969 40 174.875 37.75 174.875 35V5.00002C174.875 2.25 171.969 0 168.417 0ZM168.417 0.799975C171.408 0.799975 173.842 2.68441 173.842 5.00002V35C173.842 37.3161 171.408 39.2004 168.417 39.2004H6.95834C3.96739 39.2004 1.53334 37.316 1.53334 35V5.00002C1.53334 2.68441 3.96733 0.80002 6.95834 0.80002H168.417" fill="#A6A6A6"/>
<path d="M61.7392 10.2431C61.7392 11.0809 61.4187 11.748 60.7769 12.2457C60.0478 12.8375 59.0977 13.1337 57.9296 13.1337C56.811 13.1337 55.8599 12.8337 55.0778 12.2328C54.2943 11.6325 53.9033 10.8879 53.9033 9.99965C53.9033 9.11096 54.2943 8.3669 55.0778 7.76602C55.8599 7.16567 56.811 6.86523 57.9296 6.86523C58.4846 6.86523 59.016 6.94928 59.5205 7.11687C60.0251 7.28486 60.4297 7.50787 60.7325 7.78714L60.0513 8.31485C59.5382 7.84026 58.8318 7.60314 57.9296 7.60314C57.1138 7.60314 56.4084 7.82507 55.8131 8.26919C55.2176 8.71376 54.92 9.29028 54.92 9.99965C54.92 10.7091 55.2176 11.2855 55.8131 11.7302C56.4084 12.1743 57.1138 12.3962 57.9296 12.3962C58.795 12.3962 59.5165 12.1731 60.0942 11.7263C60.4692 11.4352 60.686 11.0305 60.744 10.511H57.9295V9.79027H61.6851C61.7214 9.94698 61.739 10.0974 61.739 10.2431" fill="white"/>
<path d="M61.7511 10.2439H61.6219C61.6208 11.0627 61.3119 11.6985 60.6974 12.1759L60.696 12.1767L60.6954 12.1775C59.9896 12.7489 59.0822 13.0333 57.9414 13.0345C56.8527 13.0333 55.9414 12.7458 55.1805 12.163C54.4212 11.579 54.0458 10.8661 54.0444 10.0005C54.0458 9.13454 54.4212 8.42202 55.1805 7.83844C55.9414 7.25522 56.8527 6.96732 57.9414 6.96611C58.4798 6.96611 58.9925 7.04745 59.4814 7.20952C59.9708 7.37284 60.3574 7.58685 60.6454 7.85255L60.7443 7.78802L60.6531 7.71732L59.9718 8.24539L60.0631 8.31573L60.1626 8.25173C59.6256 7.75363 58.872 7.50254 57.9415 7.50402C57.0954 7.50321 56.3512 7.73728 55.7355 8.19825C55.114 8.66071 54.8017 9.26968 54.8027 10.0005C54.8017 10.7314 55.114 11.3404 55.7355 11.8029C56.3512 12.2638 57.0954 12.4978 57.9414 12.497C58.8355 12.4983 59.5975 12.2634 60.1974 11.7978C60.598 11.4868 60.8251 11.056 60.8846 10.5204L60.8967 10.4118H58.0706V9.89114H61.697V9.79114L61.5698 9.80872C61.6051 9.96035 61.6219 10.1044 61.6219 10.2439H61.8801C61.8801 10.0919 61.8619 9.93572 61.8241 9.77326L61.805 9.69115H57.8124V10.6118H60.7559V10.5118L60.6273 10.5033C60.5703 11.0064 60.3634 11.3853 60.0147 11.6565C59.4598 12.0846 58.7786 12.2958 57.9415 12.297C57.156 12.2962 56.4894 12.0868 55.9147 11.6591C55.3456 11.2329 55.0625 10.6888 55.0611 10.0005C55.0625 9.31224 55.3456 8.76812 55.9147 8.34193C56.4894 7.91421 57.1559 7.70483 57.9415 7.70402C58.8149 7.70564 59.4745 7.92904 59.9644 8.38022L60.0552 8.46381L60.8357 7.85875L60.9195 7.79395L60.8432 7.72393C60.5259 7.43104 60.1031 7.19855 59.5834 7.02597C59.0627 6.85285 58.5132 6.76611 57.9415 6.76611C56.7932 6.76535 55.8022 7.07784 54.9984 7.69624C54.1917 8.31344 53.785 9.08923 53.7861 10.0005C53.785 10.9114 54.1917 11.6877 54.999 12.3052C55.8022 12.9232 56.7932 13.2354 57.9415 13.2345C59.1373 13.2354 60.1294 12.9279 60.8821 12.3157L60.7887 12.2466L60.8801 12.3174C61.5491 11.7998 61.881 11.1005 61.8801 10.2439H61.7511ZM67.7047 7.73764H64.1753V9.64005H67.3582V10.361H64.1753V12.2634H67.7047V13.0005H63.1804V7.00053H67.7047V7.73764Z" fill="white"/>
<path d="M67.7008 7.73749V7.63749H64.0423V9.7399H67.2251V10.2606L64.0423 10.2609V12.3633H67.5716V12.9004H63.3057V7.10038H67.5716V7.73749H67.7008H67.83V6.90039H63.0474V13.1004H67.83V12.1633H64.3006V10.4609H67.4834V9.5399H64.3006V7.83748H67.83V7.73749H67.7008ZM71.9003 13.0004H70.9038V7.73744H68.7392V7.00034H74.0649V7.73744H71.9003V13.0003" fill="white"/>
<path d="M71.9055 13.0004V12.9004H71.0381V7.63749H68.8736V7.10043H73.9409V7.63749H71.7763V13.0004H71.9055H72.0346V7.83749H74.1992V6.90039H68.6152V7.83744H70.7798V13.1003H72.0346V13.0003H71.9055M77.9233 13.0004V7.00034H78.9188V13.0003H77.9233" fill="white"/>
<path d="M77.9167 13.0004H78.0459V7.10038H78.783V12.9004H77.9167V13.0004V13.1004H79.0414V6.90039H77.7876V13.1004H77.9167V13.0004M83.3296 13.0004H82.3331V7.73744H80.1686V7.00034H85.4942V7.73744H83.3296V13.0003" fill="white"/>
<path d="M83.3331 12.9997V12.8997H82.4657V7.63676H80.3013V7.0997H85.3685V7.63676H83.2039V12.9996H83.3331H83.4623V7.83675H85.6268V6.89966H80.043V7.83671H82.2074V13.0996H83.4623V12.9996H83.3331M90.6321 11.722C91.2057 12.1715 91.9076 12.3961 92.7376 12.3961C93.5676 12.3961 94.2699 12.1715 94.8426 11.722C95.4168 11.2724 95.7044 10.6977 95.7044 9.99965C95.7044 9.3017 95.4168 8.72697 94.8426 8.27737C94.2699 7.82777 93.5676 7.60314 92.7376 7.60314C91.9076 7.60314 91.2057 7.82777 90.6321 8.27737C90.0593 8.72697 89.7718 9.30165 89.7718 9.99965C89.7718 10.6977 90.0593 11.2724 90.6321 11.722ZM95.5792 12.2243C94.8173 12.8308 93.8698 13.1337 92.7376 13.1337C91.6043 13.1337 90.6572 12.8308 89.8969 12.2243C89.1345 11.6183 88.7551 10.8767 88.7551 9.99965C88.7551 9.12265 89.1345 8.38083 89.8969 7.77505C90.6572 7.16833 91.6043 6.86523 92.7376 6.86523C93.8638 6.86523 94.8088 7.16994 95.5742 7.77896C96.3386 8.38793 96.7211 9.12813 96.7211 9.99965C96.7211 10.8767 96.3395 11.6183 95.5792 12.2243Z" fill="white"/>
<path d="M90.6384 11.7229L90.5466 11.7932C91.1415 12.2607 91.8837 12.4983 92.744 12.497C93.6037 12.4983 94.3469 12.2607 94.9408 11.7932C95.5397 11.3251 95.8408 10.7197 95.8399 10.0005C95.8408 9.28145 95.5397 8.67594 94.9408 8.20791C94.3469 7.74033 93.6037 7.50286 92.744 7.50403C91.8837 7.50286 91.1415 7.74033 90.5466 8.20791C89.9492 8.67594 89.6474 9.28145 89.649 10.0005C89.6474 10.7196 89.9492 11.3251 90.5466 11.7932L90.6384 11.7229L90.7303 11.6525C90.1823 11.2209 89.9084 10.6779 89.9073 10.0005C89.9084 9.32325 90.1823 8.78026 90.7302 8.34854C91.2832 7.91696 91.9437 7.70523 92.744 7.70406C93.5436 7.70523 94.2056 7.91696 94.7572 8.34854C95.3061 8.78026 95.5801 9.32325 95.5811 10.0005C95.5801 10.6778 95.3061 11.2209 94.7572 11.6525C94.2056 12.0842 93.5437 12.2958 92.744 12.297C91.9437 12.2958 91.2833 12.0842 90.7303 11.6525L90.6384 11.7229ZM95.5856 12.2251L95.4933 12.1557C94.7526 12.7431 93.8469 13.0334 92.744 13.0345C91.6405 13.0333 90.7348 12.7431 89.9955 12.1557C89.2564 11.5661 88.8917 10.8552 88.8907 10.0005C88.8917 9.14582 89.2564 8.43492 89.9955 7.84545C90.7348 7.25792 91.6404 6.96732 92.744 6.96615C93.8398 6.96732 94.7434 7.25913 95.4882 7.84972C96.2299 8.44193 96.5967 9.1517 96.5983 10.0005C96.5967 10.8552 96.2309 11.5661 95.4933 12.1557L95.5856 12.2251L95.6785 12.2946C96.4615 11.672 96.8575 10.8997 96.8566 10.0005C96.8576 9.10645 96.46 8.33573 95.6733 7.71036C94.8863 7.08251 93.9004 6.76504 92.744 6.76612C91.5815 6.76504 90.5925 7.08103 89.8104 7.70645V7.706C89.0259 8.32903 88.6313 9.10132 88.6323 10.0005C88.6313 10.8997 89.0259 11.672 89.8104 12.295L89.8139 12.2979L89.8104 12.2946C90.5925 12.92 91.5815 13.2354 92.744 13.2345C93.9059 13.2354 94.8948 12.92 95.6785 12.2946L95.5856 12.2251ZM98.125 13.0006V7.00049H99.337L103.103 11.6681H103.146L103.103 10.5118V7.00049H104.1V13.0005H103.061L99.12 8.1067H99.0771L99.12 9.26339V13.0005H98.1251" fill="white"/>
<path d="M98.1196 13.0004H98.2488V7.10038H99.2599L103.026 11.768H103.274L103.227 10.5102V7.10043H103.965V12.9004H103.127L99.1863 8.0066H98.939L98.9854 9.2649V12.9004H98.1196V13.0004V13.1004H99.2437V9.26171L99.2009 8.1039L99.0717 8.1066V8.2066H99.1146V8.1066L99.005 8.15977L102.984 13.1004H104.224V6.90039H102.969V10.5129L103.012 11.6707L103.141 11.668V11.568H103.098V11.668L103.208 11.6149L99.4031 6.90039H97.9905V13.1004H98.1196V13.0004M138.627 30.0004H141.037V17.4992H138.627L138.627 30.0004ZM160.336 22.0024L157.573 27.4223H157.491L154.623 22.0024H152.027L156.327 29.5777L153.875 33.7914H156.39L163.016 22.0024L160.336 22.0024ZM146.668 28.5805C145.877 28.5805 144.777 28.275 144.777 27.5188C144.777 26.5539 146.148 26.184 147.332 26.184C148.392 26.184 148.889 26.3609 149.534 26.6024C149.347 27.7602 148.059 28.5805 146.668 28.5805ZM146.958 21.7289C145.213 21.7289 143.406 22.3242 142.658 23.643L144.797 24.3344C145.255 23.643 146.106 23.4176 147 23.4176C148.246 23.4176 149.513 23.9969 149.534 25.0262V25.1547C149.097 24.9617 148.163 24.6723 147.02 24.6723C144.715 24.6723 142.366 25.6531 142.366 27.4867C142.366 29.1594 144.257 30.2371 146.376 30.2371C147.997 30.2371 148.889 29.6742 149.451 29.0149H149.534V29.9797H151.86V25.1867C151.86 22.9676 149.721 21.7289 146.958 21.7289ZM132.063 23.5242H128.635V19.2391H132.063C133.865 19.2391 134.888 20.3941 134.888 21.3816C134.888 22.3504 133.865 23.5242 132.063 23.5242ZM132.001 17.4992H126.226V30.0004H128.635V25.2641H132.001C134.672 25.2641 137.298 23.7668 137.298 21.3816C137.298 18.9965 134.672 17.4992 132.001 17.4992ZM100.509 28.5828C98.8436 28.5828 97.4495 27.5035 97.4495 26.0211C97.4495 24.5231 98.8436 23.4274 100.509 23.4274C102.153 23.4274 103.443 24.5231 103.443 26.0211C103.443 27.5035 102.153 28.5828 100.509 28.5828ZM103.276 22.7024H103.193C102.652 22.2031 101.611 21.752 100.3 21.752C97.5535 21.752 95.0357 23.6207 95.0357 26.0211C95.0357 28.4055 97.5534 30.2582 100.3 30.2582C101.611 30.2582 102.652 29.807 103.193 29.2918H103.276V29.9039C103.276 31.5313 102.153 32.4012 100.342 32.4012C98.8647 32.4012 97.9491 31.5793 97.5741 30.8867L95.4728 31.5633C96.0762 32.691 97.6786 34.0766 100.342 34.0766C103.172 34.0766 105.565 32.7875 105.565 29.6461V22.0098H103.276V22.7024ZM107.23 30.0004H109.644V17.4988H107.23V30.0004ZM113.202 25.8762C113.14 24.2328 114.846 23.3953 116.074 23.3953C117.032 23.3953 117.843 23.7656 118.113 24.2977L113.202 25.8762ZM120.694 24.4586C120.236 23.5078 118.841 21.752 115.99 21.752C113.16 21.752 110.809 23.4758 110.809 26.0051C110.809 28.3895 113.14 30.2582 116.261 30.2582C118.779 30.2582 120.236 29.066 120.84 28.3734L118.967 27.4066C118.343 28.1156 117.489 28.5828 116.261 28.5828C115.033 28.5828 114.16 28.1477 113.597 27.2941L120.943 24.9418L120.694 24.4586ZM62.1705 23.057V24.8613H67.7472C67.5807 25.8762 67.1437 26.6172 66.4777 27.1328C65.6664 27.7613 64.397 28.4539 62.1704 28.4539C58.7368 28.4539 56.0526 26.3113 56.0526 23.6531C56.0526 20.9949 58.7368 18.852 62.1705 18.852C64.0226 18.852 65.3748 19.416 66.3738 20.141L68.0177 18.8684C66.6236 17.8371 64.7714 17.0477 62.1705 17.0477C57.4674 17.0477 53.5137 20.0121 53.5137 23.6531C53.5137 27.2941 57.4674 30.2582 62.1705 30.2582C64.7093 30.2582 66.6236 29.6141 68.1217 28.4055C69.6616 27.2133 70.1404 25.5379 70.1404 24.1848C70.1404 23.7656 70.099 23.3793 70.0152 23.057H62.1705ZM76.4807 28.5828C74.8156 28.5828 73.3797 27.5195 73.3797 26.0051C73.3797 24.4746 74.8156 23.4274 76.4807 23.4274C78.1451 23.4274 79.5811 24.4746 79.5811 26.0051C79.5811 27.5195 78.1451 28.5828 76.4807 28.5828ZM76.4807 21.752C73.4422 21.752 70.9658 23.5402 70.9658 26.0051C70.9658 28.4539 73.4422 30.2582 76.4807 30.2582C79.5186 30.2582 81.9949 28.4539 81.9949 26.0051C81.9949 23.5402 79.5186 21.752 76.4807 21.752ZM88.5102 28.5828C86.8458 28.5828 85.4097 27.5195 85.4097 26.0051C85.4097 24.4746 86.8458 23.4274 88.5103 23.4274C90.1748 23.4274 91.6107 24.4746 91.6107 26.0051C91.6107 27.5195 90.1748 28.5828 88.5102 28.5828ZM88.5102 21.752C85.4719 21.752 82.996 23.5402 82.996 26.0051C82.996 28.4539 85.4719 30.2582 88.5103 30.2582C91.5482 30.2582 94.0247 28.4539 94.0247 26.0051C94.0247 23.5402 91.5482 21.752 88.5102 21.752Z" fill="white"/>
<path d="M14.0789 7.61075C13.6455 7.91353 13.3867 8.41855 13.3867 9.08891V8.93736V31.0585V30.9128C13.3867 31.5319 13.6087 32.0099 13.9845 32.3179L14.0804 32.389V32.3893C14.3847 32.6018 14.7747 32.7146 15.2218 32.7143C15.6587 32.7143 16.1502 32.6065 16.6689 32.3788L35.4177 24.1315L41.8577 21.2983C42.6757 20.9386 43.1348 20.4745 43.2116 20.0018V19.9999C43.1348 19.5261 42.6757 19.0624 41.8578 18.7026L35.4171 15.8697L16.6689 7.62244C16.1491 7.39435 15.6573 7.28613 15.2193 7.28613C14.7727 7.28613 14.3831 7.39862 14.079 7.61075H14.0789Z" fill="#00C1FF"/>
<path d="M14.0805 32.3887L13.9845 32.3176C13.6087 32.0097 13.3867 31.5316 13.3867 30.9125V31.0582V8.94257V9.08863C13.3867 8.41827 13.6455 7.91325 14.0789 7.61048L30.0824 20L14.0805 32.3887Z" fill="url(#paint0_linear_695_1323)"/>
<path d="M35.4192 24.1318L30.084 20.0006L35.4187 15.8701L41.8593 18.7029C42.6772 19.0627 43.1364 19.5264 43.2131 20.0002V20.0021C43.1364 20.4748 42.6772 20.9389 41.8593 21.2986L35.4193 24.1318" fill="url(#paint1_linear_695_1323)"/>
<path d="M15.2116 32.7153C14.7646 32.7156 14.3745 32.6028 14.0703 32.3903V32.3899L30.0723 20.0013L35.4075 24.1325L16.6586 32.3798C16.1399 32.6075 15.6484 32.7153 15.2116 32.7153Z" fill="url(#paint2_linear_695_1323)"/>
<path d="M30.0739 20.001L14.0703 7.61147C14.3745 7.39935 14.7641 7.28685 15.2106 7.28685C15.6486 7.28685 16.1405 7.39503 16.6602 7.62316L35.4086 15.8705L30.0738 20.001" fill="url(#paint3_linear_695_1323)"/>
<path d="M15.207 32.8613C14.7599 32.8613 14.3693 32.7484 14.0651 32.5359L14.0646 32.5363C14.0633 32.5353 14.062 32.5344 14.0606 32.5336L13.9774 32.4707C13.9748 32.4687 13.9723 32.4664 13.9692 32.4641L14.0652 32.3898C14.3694 32.6023 14.7594 32.7152 15.2066 32.7148C15.6433 32.7148 16.1348 32.607 16.6535 32.3793L35.4023 24.132L35.5225 24.2251L35.4008 24.2785L16.6535 32.5254C16.1808 32.7328 15.7311 32.841 15.325 32.859C15.2857 32.8605 15.2463 32.8613 15.207 32.8613Z" fill="url(#paint4_linear_695_1323)"/>
<path d="M13.9869 32.4644C13.6095 32.1565 13.3867 31.6788 13.3867 31.0593V30.9136C13.3867 31.5327 13.6095 32.0108 13.9869 32.3187L14.0832 32.3898L13.9869 32.4644Z" fill="url(#paint5_linear_695_1323)"/>
<path d="M35.5313 24.2251L35.4111 24.132L41.8512 21.2989C42.6691 20.9392 43.1283 20.4751 43.205 20.0024C43.205 20.1758 43.155 20.3493 43.0557 20.5181C42.8554 20.8583 42.4538 21.1798 41.8513 21.445L35.5313 24.2251" fill="url(#paint6_linear_695_1323)"/>
<path d="M43.2056 20.0005C43.1288 19.5267 42.6697 19.063 41.8518 18.7032L35.4111 15.8704L35.5313 15.7773H35.5318L41.8518 18.5575C42.7535 18.9544 43.2051 19.4774 43.2056 20.0005Z" fill="url(#paint7_linear_695_1323)"/>
<path d="M13.3867 9.08936V8.93655C13.3867 8.88145 13.3886 8.82757 13.3923 8.77525V8.77287C13.3923 8.77215 13.3923 8.77139 13.3927 8.77058V8.76469C13.4317 8.23145 13.6465 7.81551 13.9869 7.53776L14.0817 7.61115C13.6465 7.91398 13.3867 8.41899 13.3867 9.08936Z" fill="url(#paint8_linear_695_1323)"/>
<path d="M35.4018 15.8701L16.6535 7.62273C16.1338 7.39465 15.6419 7.28647 15.2039 7.28647C14.7574 7.28647 14.3678 7.39896 14.0637 7.61109L13.9692 7.53766C13.9987 7.51349 14.0294 7.49018 14.0611 7.46777C14.0621 7.46696 14.0637 7.46615 14.0647 7.46539C14.3664 7.25488 14.7519 7.14239 15.1944 7.14037H15.2039C15.6419 7.14037 16.1338 7.24859 16.6535 7.47676L35.5225 15.7768L35.5219 15.7771L35.4018 15.8701Z" fill="url(#paint9_linear_695_1323)"/>
<defs>
<linearGradient id="paint0_linear_695_1323" x1="23.6139" y1="8.70883" x2="13.3021" y2="22.0712" gradientUnits="userSpaceOnUse">
<stop stop-color="#00A0FF"/>
<stop offset="0.00657" stop-color="#00A1FF"/>
<stop offset="0.2601" stop-color="#00BEFF"/>
<stop offset="0.5122" stop-color="#00D2FF"/>
<stop offset="0.7604" stop-color="#00DFFF"/>
<stop offset="1" stop-color="#00E3FF"/>
</linearGradient>
<linearGradient id="paint1_linear_695_1323" x1="44.2096" y1="19.9292" x2="12.9552" y2="19.9292" gradientUnits="userSpaceOnUse">
<stop stop-color="#FFE000"/>
<stop offset="0.4087" stop-color="#FFBD00"/>
<stop offset="0.7754" stop-color="#FFA500"/>
<stop offset="1" stop-color="#FF9C00"/>
</linearGradient>
<linearGradient id="paint2_linear_695_1323" x1="32.5749" y1="23.929" x2="15.0685" y2="46.4489" gradientUnits="userSpaceOnUse">
<stop stop-color="#FF3A44"/>
<stop offset="1" stop-color="#C31162"/>
</linearGradient>
<linearGradient id="paint3_linear_695_1323" x1="9.94575" y1="5.77467" x2="17.7449" y2="15.8228" gradientUnits="userSpaceOnUse">
<stop stop-color="#32A071"/>
<stop offset="0.0685" stop-color="#2DA771"/>
<stop offset="0.4762" stop-color="#15CF74"/>
<stop offset="0.8009" stop-color="#06E775"/>
<stop offset="1" stop-color="#00F076"/>
</linearGradient>
<linearGradient id="paint4_linear_695_1323" x1="32.5582" y1="26.7942" x2="18.5641" y2="44.9285" gradientUnits="userSpaceOnUse">
<stop stop-color="#CC2E36"/>
<stop offset="1" stop-color="#9C0E4E"/>
</linearGradient>
<linearGradient id="paint5_linear_695_1323" x1="15.5272" y1="8.70987" x2="6.45198" y2="20.5173" gradientUnits="userSpaceOnUse">
<stop stop-color="#008DE0"/>
<stop offset="0.00657" stop-color="#008DE0"/>
<stop offset="0.2601" stop-color="#00A7E0"/>
<stop offset="0.5122" stop-color="#00B8E0"/>
<stop offset="0.7604" stop-color="#00C4E0"/>
<stop offset="1" stop-color="#00C7E0"/>
</linearGradient>
<linearGradient id="paint6_linear_695_1323" x1="44.2016" y1="20.0014" x2="12.9471" y2="20.0014" gradientUnits="userSpaceOnUse">
<stop stop-color="#E0C500"/>
<stop offset="0.4087" stop-color="#E0A600"/>
<stop offset="0.7754" stop-color="#E09100"/>
<stop offset="1" stop-color="#E08900"/>
</linearGradient>
<linearGradient id="paint7_linear_695_1323" x1="44.2021" y1="20.0015" x2="12.9477" y2="20.0015" gradientUnits="userSpaceOnUse">
<stop stop-color="#FFE840"/>
<stop offset="0.4087" stop-color="#FFCE40"/>
<stop offset="0.7754" stop-color="#FFBC40"/>
<stop offset="1" stop-color="#FFB540"/>
</linearGradient>
<linearGradient id="paint8_linear_695_1323" x1="15.514" y1="8.72654" x2="6.67286" y2="19.7309" gradientUnits="userSpaceOnUse">
<stop stop-color="#40B8FF"/>
<stop offset="0.00657" stop-color="#40B9FF"/>
<stop offset="0.2601" stop-color="#40CEFF"/>
<stop offset="0.5122" stop-color="#40DDFF"/>
<stop offset="0.7604" stop-color="#40E7FF"/>
<stop offset="1" stop-color="#40EAFF"/>
</linearGradient>
<linearGradient id="paint9_linear_695_1323" x1="9.91572" y1="8.39443" x2="16.1647" y2="16.4922" gradientUnits="userSpaceOnUse">
<stop stop-color="#65B895"/>
<stop offset="0.0685" stop-color="#62BD95"/>
<stop offset="0.4762" stop-color="#50DB97"/>
<stop offset="0.8009" stop-color="#44ED98"/>
<stop offset="1" stop-color="#40F498"/>
</linearGradient>
</defs>
</svg>
