<svg width="176" height="40" viewBox="0 0 176 40" fill="none" xmlns="http://www.w3.org/2000/svg">
<rect x="0.875" width="174.375" height="40" rx="5" fill="#1C53A4"/>
<path d="M53.9558 21.076C53.9558 22.468 53.6738 23.5 53.1098 24.172C52.5578 24.844 51.6938 25.18 50.5178 25.18C49.6658 25.18 48.9998 25.012 48.5198 24.676C48.0518 24.328 47.8178 23.956 47.8178 23.56C47.8178 23.284 47.9018 23.038 48.0698 22.822C48.2498 22.594 48.4538 22.48 48.6818 22.48C48.8858 22.48 49.0838 22.564 49.2758 22.732C49.4798 22.888 49.5818 23.074 49.5818 23.29C49.5818 23.698 49.4318 23.95 49.1318 24.046C49.1438 24.058 49.1678 24.094 49.2038 24.154C49.2518 24.202 49.2938 24.244 49.3298 24.28C49.3778 24.304 49.4438 24.34 49.5278 24.388C49.6118 24.436 49.7198 24.472 49.8518 24.496C49.9958 24.52 50.1578 24.532 50.3378 24.532C50.8658 24.532 51.2198 24.214 51.3998 23.578C51.5798 22.93 51.6698 21.88 51.6698 20.428V15.208C51.5618 14.968 51.1838 14.848 50.5358 14.848V14.47H55.0898V14.848C54.4418 14.848 54.0638 14.968 53.9558 15.208V21.076ZM58.081 20.536C58.081 21.952 58.267 22.99 58.639 23.65C59.023 24.31 59.605 24.64 60.385 24.64C60.925 24.64 61.339 24.358 61.627 23.794C61.915 23.218 62.059 22.462 62.059 21.526C62.059 20.062 61.885 19.018 61.537 18.394C61.201 17.77 60.595 17.458 59.719 17.458C59.203 17.458 58.801 17.758 58.513 18.358C58.225 18.958 58.081 19.684 58.081 20.536ZM60.151 25.18C58.795 25.18 57.715 24.784 56.911 23.992C56.119 23.2 55.723 22.168 55.723 20.896C55.723 19.756 56.083 18.808 56.803 18.052C57.535 17.284 58.609 16.9 60.025 16.9C61.453 16.9 62.539 17.278 63.283 18.034C64.039 18.79 64.417 19.816 64.417 21.112C64.417 22.264 64.057 23.23 63.337 24.01C62.617 24.79 61.555 25.18 60.151 25.18ZM65.4056 25V24.622C66.0536 24.622 66.4316 24.502 66.5396 24.262V18.16C65.9156 18.112 65.5376 18.088 65.4056 18.088V17.674C65.6336 17.674 66.1856 17.548 67.0616 17.296C67.9376 17.032 68.5136 16.9 68.7896 16.9V24.262C68.8976 24.502 69.2756 24.622 69.9236 24.622V25H65.4056ZM67.6196 15.748C67.3316 15.748 67.0376 15.646 66.7376 15.442C66.4496 15.226 66.3056 14.974 66.3056 14.686C66.3056 14.434 66.4376 14.2 66.7016 13.984C66.9776 13.768 67.2656 13.66 67.5656 13.66C67.8536 13.66 68.1416 13.768 68.4296 13.984C68.7296 14.188 68.8796 14.44 68.8796 14.74C68.8796 14.992 68.7416 15.226 68.4656 15.442C68.2016 15.646 67.9196 15.748 67.6196 15.748ZM70.6088 25V24.622C71.2568 24.622 71.6348 24.502 71.7428 24.262V18.16C71.0948 18.112 70.7168 18.088 70.6088 18.088V17.674C70.8368 17.674 71.3888 17.548 72.2648 17.296C73.1408 17.032 73.7168 16.9 73.9928 16.9V17.656C74.5928 17.152 75.2528 16.9 75.9728 16.9C77.1248 16.9 78.0188 17.116 78.6548 17.548C79.2908 17.968 79.6088 18.604 79.6088 19.456V24.262C79.7168 24.502 80.0948 24.622 80.7428 24.622V25H76.2248V24.622C76.8728 24.622 77.2508 24.502 77.3588 24.262V19.33C77.3588 18.79 77.2328 18.352 76.9808 18.016C76.7408 17.68 76.3688 17.512 75.8648 17.512C75.1208 17.512 74.4968 17.752 73.9928 18.232V24.262C74.1008 24.502 74.4788 24.622 75.1268 24.622V25H70.6088ZM85.8892 25V24.622C86.5372 24.622 86.9152 24.502 87.0232 24.262V15.208C86.9152 14.968 86.5372 14.848 85.8892 14.848V14.47H88.9312L94.2592 21.76V15.208C94.1512 14.968 93.7732 14.848 93.1252 14.848V14.47H96.0052V14.848C95.3572 14.848 94.9792 14.968 94.8712 15.208V25H94.0792L87.6352 16.09V24.262C87.7432 24.502 88.1212 24.622 88.7692 24.622V25H85.8892ZM100.239 17.08V17.458C99.891 17.458 99.639 17.482 99.483 17.53L101.625 22.804L103.677 17.656C103.509 17.524 103.173 17.458 102.669 17.458V17.08H105.621V17.458C104.973 17.458 104.607 17.554 104.523 17.746L100.887 26.836C100.491 27.82 99.861 28.312 98.997 28.312C98.121 28.312 97.683 28.024 97.683 27.448C97.683 27.232 97.749 27.058 97.881 26.926C98.025 26.794 98.223 26.728 98.475 26.728C98.667 26.728 98.835 26.818 98.979 26.998C99.123 27.178 99.285 27.268 99.465 27.268C99.717 27.268 99.885 27.16 99.969 26.944L100.437 25.792L97.251 17.818C97.143 17.578 96.765 17.458 96.117 17.458V17.08H100.239ZM105.585 25V24.622C106.233 24.622 106.611 24.502 106.719 24.262V14.92C106.071 14.872 105.693 14.848 105.585 14.848V14.434C105.813 14.434 106.365 14.308 107.241 14.056C108.117 13.792 108.693 13.66 108.969 13.66V24.262C109.077 24.502 109.455 24.622 110.103 24.622V25H105.585ZM114.07 25L111.208 17.818C111.1 17.578 110.722 17.458 110.074 17.458V17.08H114.196V17.458C113.848 17.458 113.596 17.482 113.44 17.53L115.582 22.804L117.634 17.656C117.466 17.524 117.13 17.458 116.626 17.458V17.08H119.578V17.458C118.918 17.458 118.54 17.578 118.444 17.818L115.582 25H114.07ZM121.612 18.412C121.888 18.412 122.026 18.658 122.026 19.15C122.026 19.354 121.924 19.51 121.72 19.618C121.516 19.726 121.3 19.78 121.072 19.78C120.832 19.78 120.616 19.696 120.424 19.528C120.244 19.36 120.154 19.144 120.154 18.88C120.154 18.268 120.454 17.788 121.054 17.44C121.666 17.08 122.458 16.9 123.43 16.9C124.57 16.9 125.458 17.188 126.094 17.764C126.73 18.328 127.048 19.048 127.048 19.924V23.488C127.048 23.872 127.108 24.154 127.228 24.334C127.36 24.514 127.516 24.604 127.696 24.604C127.852 24.604 127.99 24.562 128.11 24.478C128.242 24.394 128.308 24.292 128.308 24.172H128.632C128.632 24.82 127.972 25.144 126.652 25.144C126.04 25.144 125.566 24.928 125.23 24.496C124.51 24.952 123.676 25.18 122.728 25.18C120.724 25.18 119.722 24.448 119.722 22.984C119.722 22.684 119.824 22.414 120.028 22.174C120.244 21.934 120.568 21.73 121 21.562C121.432 21.394 121.816 21.262 122.152 21.166C122.5 21.07 122.974 20.962 123.574 20.842C124.174 20.71 124.582 20.614 124.798 20.554C124.798 19.426 124.702 18.646 124.51 18.214C124.33 17.77 123.91 17.548 123.25 17.548C122.854 17.548 122.494 17.632 122.17 17.8C121.858 17.956 121.672 18.16 121.612 18.412ZM124.978 24.064C124.858 23.74 124.798 23.38 124.798 22.984V20.95C123.778 21.262 123.106 21.52 122.782 21.724C122.278 22.06 122.026 22.492 122.026 23.02C122.026 23.572 122.14 23.968 122.368 24.208C122.608 24.448 122.878 24.568 123.178 24.568C123.706 24.568 124.306 24.4 124.978 24.064Z" fill="#FDFFF5"/>
</svg>
