<svg width="224" height="89" viewBox="0 0 224 89" fill="none" xmlns="http://www.w3.org/2000/svg">
<path d="M104.332 68L90.4601 51.968V68H80.7161V34.976H89.9801L103.852 51.248V34.976H113.596V68H104.332ZM137.452 67.232C136.14 70.784 134.524 73.472 132.604 75.296C130.716 77.152 128.06 78.08 124.636 78.08C122.556 78.08 120.716 77.792 119.116 77.216V71.504H122.956C125.356 71.504 126.78 70.336 127.228 68L117.148 42.656H127.42L132.268 59.504H132.604L137.068 42.656H146.476L137.452 67.232ZM149.708 68V33.2H159.26V68H149.708ZM172.077 68L162.477 42.656H172.749L177.405 58.448H177.741L182.397 42.656H191.805L182.109 68H172.077ZM207.228 42.08C211.1 42.08 214.252 42.736 216.684 44.048C219.116 45.328 220.332 47.424 220.332 50.336V60.224C220.332 60.768 220.46 61.216 220.716 61.568C220.972 61.92 221.356 62.096 221.868 62.096H223.596V67.616C223.5 67.68 223.244 67.792 222.828 67.952C222.444 68.08 221.884 68.208 221.148 68.336C220.412 68.496 219.564 68.576 218.604 68.576C216.748 68.576 215.212 68.304 213.996 67.76C212.812 67.184 211.996 66.4 211.548 65.408C210.332 66.368 208.972 67.136 207.468 67.712C205.964 68.288 204.204 68.576 202.188 68.576C196.236 68.576 193.26 66.208 193.26 61.472C193.26 59.008 193.916 57.136 195.228 55.856C196.572 54.544 198.492 53.648 200.988 53.168C203.484 52.688 206.748 52.448 210.78 52.448V51.2C210.78 50.208 210.428 49.456 209.724 48.944C209.052 48.432 208.172 48.176 207.084 48.176C206.092 48.176 205.228 48.352 204.492 48.704C203.788 49.056 203.436 49.616 203.436 50.384V50.576H194.028C193.996 50.416 193.98 50.192 193.98 49.904C193.98 47.504 195.116 45.6 197.388 44.192C199.692 42.784 202.972 42.08 207.228 42.08ZM210.78 56.96C208.06 56.96 206.044 57.264 204.732 57.872C203.452 58.448 202.812 59.232 202.812 60.224C202.812 61.824 203.9 62.624 206.076 62.624C207.324 62.624 208.412 62.288 209.34 61.616C210.3 60.944 210.78 60.112 210.78 59.12V56.96Z" fill="url(#paint0_diamond_390_102)"/>
<path d="M40.98 0.104247C30.2612 0.847432 20.1827 5.51734 12.6451 13.2333C5.10747 20.9492 0.631742 31.1779 0.061958 41.9904C-0.507826 52.8028 2.86772 63.4517 9.552 71.9288C16.2363 80.4059 25.7673 86.1253 36.3477 88.0084L36.6873 79.1509C30.3503 77.8003 24.5038 74.7195 19.7873 70.2455C15.0708 65.7715 11.6659 60.0765 9.94507 53.7836C8.22422 47.4905 8.25364 40.8418 10.0301 34.5645C11.8066 28.2873 15.2618 22.6232 20.0177 18.1917C24.7736 13.7603 30.6471 10.7322 36.9958 9.43859C43.3446 8.14498 49.9241 8.63569 56.0147 10.8571C62.1053 13.0784 67.4725 16.9449 71.5293 22.0336C75.5861 27.1223 78.1762 33.2373 79.0164 39.7097C81.2986 58.1503 64.1822 74.6742 47.7722 79.0962L53.3147 87.9536C63.0986 85.6338 71.8304 80.0801 78.1182 72.1777C84.4061 64.2754 87.8881 54.4792 88.0093 44.3507C88.0086 38.2702 86.7674 32.2548 84.3627 26.678C81.9581 21.1013 78.4413 16.0824 74.031 11.933C69.6206 7.78366 64.4108 4.59242 58.7251 2.55755C53.0395 0.522677 46.9994 -0.31238 40.98 0.104247Z" fill="url(#paint1_linear_390_102)"/>
<path d="M13.5942 44.0361C13.6052 51.0456 16.003 57.839 20.3868 63.281C24.7706 68.723 30.8748 72.4839 37.6794 73.9353L38.2228 58.6572L49.4164 48.1432L56.2765 55.5495L48.9138 62.5315L55.7739 69.9515L51.848 73.6341C58.3162 71.8915 64.0327 68.0458 68.1101 62.694C72.1876 57.3422 74.398 50.7835 74.3982 44.0361" stroke="#4A59A3" stroke-width="2" stroke-linecap="round" stroke-linejoin="round"/>
<defs>
<radialGradient id="paint0_diamond_390_102" cx="0" cy="0" r="1" gradientUnits="userSpaceOnUse" gradientTransform="translate(150 58) rotate(90) scale(29 81.9808)">
<stop offset="0.293342" stop-color="#81C449"/>
<stop offset="1" stop-color="#1C53A4"/>
</radialGradient>
<linearGradient id="paint1_linear_390_102" x1="10.1161" y1="62.8597" x2="84.4094" y2="23.0374" gradientUnits="userSpaceOnUse">
<stop offset="0.09" stop-color="#6FB353"/>
<stop offset="0.57" stop-color="#39673D"/>
</linearGradient>
</defs>
</svg>
